<svg id="visual" viewBox="0 0 960 540" width="960" height="540" xmlns="http://www.w3.org/2000/svg" xmlns:xlink="http://www.w3.org/1999/xlink" version="1.1"><rect x="0" y="0" width="960" height="540" fill="#001122"></rect><defs><linearGradient id="grad1_0" x1="43.8%" y1="0%" x2="100%" y2="100%"><stop offset="14.444444444444446%" stop-color="#ff6f61" stop-opacity="1"></stop><stop offset="85.55555555555554%" stop-color="#ff6f61" stop-opacity="1"></stop></linearGradient></defs><defs><linearGradient id="grad1_1" x1="43.8%" y1="0%" x2="100%" y2="100%"><stop offset="14.444444444444446%" stop-color="#ff6f61" stop-opacity="1"></stop><stop offset="85.55555555555554%" stop-color="#d15172" stop-opacity="1"></stop></linearGradient></defs><defs><linearGradient id="grad1_2" x1="43.8%" y1="0%" x2="100%" y2="100%"><stop offset="14.444444444444446%" stop-color="#974175" stop-opacity="1"></stop><stop offset="85.55555555555554%" stop-color="#d15172" stop-opacity="1"></stop></linearGradient></defs><defs><linearGradient id="grad1_3" x1="43.8%" y1="0%" x2="100%" y2="100%"><stop offset="14.444444444444446%" stop-color="#974175" stop-opacity="1"></stop><stop offset="85.55555555555554%" stop-color="#5a3566" stop-opacity="1"></stop></linearGradient></defs><defs><linearGradient id="grad1_4" x1="43.8%" y1="0%" x2="100%" y2="100%"><stop offset="14.444444444444446%" stop-color="#242648" stop-opacity="1"></stop><stop offset="85.55555555555554%" stop-color="#5a3566" stop-opacity="1"></stop></linearGradient></defs><defs><linearGradient id="grad1_5" x1="43.8%" y1="0%" x2="100%" y2="100%"><stop offset="14.444444444444446%" stop-color="#242648" stop-opacity="1"></stop><stop offset="85.55555555555554%" stop-color="#001122" stop-opacity="1"></stop></linearGradient></defs><defs><linearGradient id="grad2_0" x1="0%" y1="0%" x2="56.3%" y2="100%"><stop offset="14.444444444444446%" stop-color="#ff6f61" stop-opacity="1"></stop><stop offset="85.55555555555554%" stop-color="#ff6f61" stop-opacity="1"></stop></linearGradient></defs><defs><linearGradient id="grad2_1" x1="0%" y1="0%" x2="56.3%" y2="100%"><stop offset="14.444444444444446%" stop-color="#d15172" stop-opacity="1"></stop><stop offset="85.55555555555554%" stop-color="#ff6f61" stop-opacity="1"></stop></linearGradient></defs><defs><linearGradient id="grad2_2" x1="0%" y1="0%" x2="56.3%" y2="100%"><stop offset="14.444444444444446%" stop-color="#d15172" stop-opacity="1"></stop><stop offset="85.55555555555554%" stop-color="#974175" stop-opacity="1"></stop></linearGradient></defs><defs><linearGradient id="grad2_3" x1="0%" y1="0%" x2="56.3%" y2="100%"><stop offset="14.444444444444446%" stop-color="#5a3566" stop-opacity="1"></stop><stop offset="85.55555555555554%" stop-color="#974175" stop-opacity="1"></stop></linearGradient></defs><defs><linearGradient id="grad2_4" x1="0%" y1="0%" x2="56.3%" y2="100%"><stop offset="14.444444444444446%" stop-color="#5a3566" stop-opacity="1"></stop><stop offset="85.55555555555554%" stop-color="#242648" stop-opacity="1"></stop></linearGradient></defs><defs><linearGradient id="grad2_5" x1="0%" y1="0%" x2="56.3%" y2="100%"><stop offset="14.444444444444446%" stop-color="#001122" stop-opacity="1"></stop><stop offset="85.55555555555554%" stop-color="#242648" stop-opacity="1"></stop></linearGradient></defs><g transform="translate(960, 0)"><path d="M0 432C-26.8 407.5 -53.6 382.9 -86.6 379.2C-119.5 375.6 -158.7 392.8 -183.1 380.2C-207.5 367.6 -217.3 325.3 -243.2 304.9C-269 284.6 -311 286.2 -337.8 269.3C-364.5 252.5 -376.2 217.2 -382.9 184.4C-389.6 151.6 -391.4 121.3 -398.7 91C-406.1 60.7 -419.1 30.3 -432 0L0 0Z" fill="#0f1c35"></path><path d="M0 360C-22.3 339.5 -44.7 319.1 -72.1 316C-99.6 313 -132.2 327.3 -152.6 316.8C-173 306.4 -181.1 271.1 -202.6 254.1C-224.2 237.1 -259.1 238.5 -281.5 224.5C-303.8 210.4 -313.5 181 -319.1 153.7C-324.7 126.3 -326.2 101.1 -332.3 75.8C-338.4 50.6 -349.2 25.3 -360 0L0 0Z" fill="#3d2e58"></path><path d="M0 288C-17.9 271.6 -35.7 255.3 -57.7 252.8C-79.7 250.4 -105.8 261.9 -122.1 253.5C-138.4 245.1 -144.9 216.9 -162.1 203.3C-179.3 189.7 -207.3 190.8 -225.2 179.6C-243 168.3 -250.8 144.8 -255.3 122.9C-259.7 101.1 -260.9 80.9 -265.8 60.7C-270.7 40.5 -279.4 20.2 -288 0L0 0Z" fill="#783b6f"></path><path d="M0 216C-13.4 203.7 -26.8 191.5 -43.3 189.6C-59.8 187.8 -79.3 196.4 -91.5 190.1C-103.8 183.8 -108.7 162.6 -121.6 152.5C-134.5 142.3 -155.5 143.1 -168.9 134.7C-182.3 126.3 -188.1 108.6 -191.5 92.2C-194.8 75.8 -195.7 60.7 -199.4 45.5C-203.1 30.3 -209.5 15.2 -216 0L0 0Z" fill="#b54876"></path><path d="M0 144C-8.9 135.8 -17.9 127.6 -28.9 126.4C-39.8 125.2 -52.9 130.9 -61 126.7C-69.2 122.5 -72.4 108.4 -81.1 101.6C-89.7 94.9 -103.7 95.4 -112.6 89.8C-121.5 84.2 -125.4 72.4 -127.6 61.5C-129.9 50.5 -130.5 40.4 -132.9 30.3C-135.4 20.2 -139.7 10.1 -144 0L0 0Z" fill="#ea5e6b"></path><path d="M0 72C-4.5 67.9 -8.9 63.8 -14.4 63.2C-19.9 62.6 -26.4 65.5 -30.5 63.4C-34.6 61.3 -36.2 54.2 -40.5 50.8C-44.8 47.4 -51.8 47.7 -56.3 44.9C-60.8 42.1 -62.7 36.2 -63.8 30.7C-64.9 25.3 -65.2 20.2 -66.5 15.2C-67.7 10.1 -69.8 5.1 -72 0L0 0Z" fill="#ff6f61"></path></g><g transform="translate(0, 540)"><path d="M0 -432C27.6 -403.9 55.3 -375.8 83 -363.6C110.7 -351.5 138.5 -355.2 171.4 -355.9C204.2 -356.6 242.2 -354.4 269.3 -337.8C296.5 -321.2 313 -290.2 325.2 -259.4C337.5 -228.5 345.5 -197.8 350.5 -168.8C355.5 -139.7 357.4 -112.4 370.5 -84.6C383.6 -56.7 407.8 -28.4 432 0L0 0Z" fill="#0f1c35"></path><path d="M0 -360C23 -336.6 46.1 -313.2 69.2 -303C92.3 -292.9 115.4 -296 142.8 -296.6C170.2 -297.2 201.8 -295.3 224.5 -281.5C247.1 -267.6 260.8 -241.8 271 -216.1C281.2 -190.4 287.9 -164.8 292.1 -140.7C296.2 -116.5 297.8 -93.7 308.7 -70.5C319.6 -47.3 339.8 -23.6 360 0L0 0Z" fill="#3d2e58"></path><path d="M0 -288C18.4 -269.3 36.9 -250.6 55.3 -242.4C73.8 -234.3 92.3 -236.8 114.3 -237.3C136.2 -237.7 161.4 -236.2 179.6 -225.2C197.7 -214.1 208.7 -193.5 216.8 -172.9C225 -152.4 230.3 -131.9 233.7 -112.5C237 -93.2 238.3 -74.9 247 -56.4C255.7 -37.8 271.9 -18.9 288 0L0 0Z" fill="#783b6f"></path><path d="M0 -216C13.8 -202 27.6 -187.9 41.5 -181.8C55.4 -175.7 69.3 -177.6 85.7 -177.9C102.1 -178.3 121.1 -177.2 134.7 -168.9C148.3 -160.6 156.5 -145.1 162.6 -129.7C168.7 -114.3 172.7 -98.9 175.2 -84.4C177.7 -69.9 178.7 -56.2 185.2 -42.3C191.8 -28.4 203.9 -14.2 216 0L0 0Z" fill="#b54876"></path><path d="M0 -144C9.2 -134.6 18.4 -125.3 27.7 -121.2C36.9 -117.2 46.2 -118.4 57.1 -118.6C68.1 -118.9 80.7 -118.1 89.8 -112.6C98.8 -107.1 104.3 -96.7 108.4 -86.5C112.5 -76.2 115.2 -65.9 116.8 -56.3C118.5 -46.6 119.1 -37.5 123.5 -28.2C127.9 -18.9 135.9 -9.5 144 0L0 0Z" fill="#ea5e6b"></path><path d="M0 -72C4.6 -67.3 9.2 -62.6 13.8 -60.6C18.5 -58.6 23.1 -59.2 28.6 -59.3C34 -59.4 40.4 -59.1 44.9 -56.3C49.4 -53.5 52.2 -48.4 54.2 -43.2C56.2 -38.1 57.6 -33 58.4 -28.1C59.2 -23.3 59.6 -18.7 61.7 -14.1C63.9 -9.5 68 -4.7 72 0L0 0Z" fill="#ff6f61"></path></g></svg>