<svg id="visual" viewBox="0 0 900 600" width="900" height="600" xmlns="http://www.w3.org/2000/svg" xmlns:xlink="http://www.w3.org/1999/xlink" version="1.1"><rect x="0" y="0" width="900" height="600" fill="#13233a"></rect><defs><linearGradient id="grad1_0" x1="33.3%" y1="0%" x2="100%" y2="100%"><stop offset="20%" stop-color="#f7770f" stop-opacity="1"></stop><stop offset="80%" stop-color="#f7770f" stop-opacity="1"></stop></linearGradient></defs><defs><linearGradient id="grad1_1" x1="33.3%" y1="0%" x2="100%" y2="100%"><stop offset="20%" stop-color="#f7770f" stop-opacity="1"></stop><stop offset="80%" stop-color="#e6494b" stop-opacity="1"></stop></linearGradient></defs><defs><linearGradient id="grad1_2" x1="33.3%" y1="0%" x2="100%" y2="100%"><stop offset="20%" stop-color="#b83568" stop-opacity="1"></stop><stop offset="80%" stop-color="#e6494b" stop-opacity="1"></stop></linearGradient></defs><defs><linearGradient id="grad1_3" x1="33.3%" y1="0%" x2="100%" y2="100%"><stop offset="20%" stop-color="#b83568" stop-opacity="1"></stop><stop offset="80%" stop-color="#7b356f" stop-opacity="1"></stop></linearGradient></defs><defs><linearGradient id="grad1_4" x1="33.3%" y1="0%" x2="100%" y2="100%"><stop offset="20%" stop-color="#3d315e" stop-opacity="1"></stop><stop offset="80%" stop-color="#7b356f" stop-opacity="1"></stop></linearGradient></defs><defs><linearGradient id="grad1_5" x1="33.3%" y1="0%" x2="100%" y2="100%"><stop offset="20%" stop-color="#3d315e" stop-opacity="1"></stop><stop offset="80%" stop-color="#13233a" stop-opacity="1"></stop></linearGradient></defs><defs><linearGradient id="grad2_0" x1="0%" y1="0%" x2="66.7%" y2="100%"><stop offset="20%" stop-color="#f7770f" stop-opacity="1"></stop><stop offset="80%" stop-color="#f7770f" stop-opacity="1"></stop></linearGradient></defs><defs><linearGradient id="grad2_1" x1="0%" y1="0%" x2="66.7%" y2="100%"><stop offset="20%" stop-color="#e6494b" stop-opacity="1"></stop><stop offset="80%" stop-color="#f7770f" stop-opacity="1"></stop></linearGradient></defs><defs><linearGradient id="grad2_2" x1="0%" y1="0%" x2="66.7%" y2="100%"><stop offset="20%" stop-color="#e6494b" stop-opacity="1"></stop><stop offset="80%" stop-color="#b83568" stop-opacity="1"></stop></linearGradient></defs><defs><linearGradient id="grad2_3" x1="0%" y1="0%" x2="66.7%" y2="100%"><stop offset="20%" stop-color="#7b356f" stop-opacity="1"></stop><stop offset="80%" stop-color="#b83568" stop-opacity="1"></stop></linearGradient></defs><defs><linearGradient id="grad2_4" x1="0%" y1="0%" x2="66.7%" y2="100%"><stop offset="20%" stop-color="#7b356f" stop-opacity="1"></stop><stop offset="80%" stop-color="#3d315e" stop-opacity="1"></stop></linearGradient></defs><defs><linearGradient id="grad2_5" x1="0%" y1="0%" x2="66.7%" y2="100%"><stop offset="20%" stop-color="#13233a" stop-opacity="1"></stop><stop offset="80%" stop-color="#3d315e" stop-opacity="1"></stop></linearGradient></defs><g transform="translate(900, 0)"><path d="M0 405.6C-45.7 398.8 -91.4 392.1 -117.1 360.5C-142.9 328.8 -148.7 272.4 -183.4 252.4C-218.1 232.5 -281.8 249.1 -321.2 233.4C-360.6 217.6 -375.7 169.6 -385.8 125.3C-395.8 81.1 -400.7 40.5 -405.6 0L0 0Z" fill="#242b4d"></path><path d="M0 338C-38.1 332.4 -76.1 326.7 -97.6 300.4C-119.1 274 -123.9 227 -152.8 210.3C-181.8 193.7 -234.8 207.6 -267.6 194.5C-300.5 181.4 -313.1 141.4 -321.5 104.5C-329.8 67.6 -333.9 33.8 -338 0L0 0Z" fill="#5b3469"></path><path d="M0 270.4C-30.5 265.9 -60.9 261.4 -78.1 240.3C-95.2 219.2 -99.1 181.6 -122.3 168.3C-145.4 155 -187.8 166 -214.1 155.6C-240.4 145.1 -250.5 113.1 -257.2 83.6C-263.9 54 -267.1 27 -270.4 0L0 0Z" fill="#9b346f"></path><path d="M0 202.8C-22.8 199.4 -45.7 196 -58.6 180.2C-71.4 164.4 -74.3 136.2 -91.7 126.2C-109.1 116.2 -140.9 124.5 -160.6 116.7C-180.3 108.8 -187.9 84.8 -192.9 62.7C-197.9 40.5 -200.4 20.3 -202.8 0L0 0Z" fill="#d23b5c"></path><path d="M0 135.2C-15.2 132.9 -30.5 130.7 -39 120.2C-47.6 109.6 -49.6 90.8 -61.1 84.1C-72.7 77.5 -93.9 83 -107.1 77.8C-120.2 72.5 -125.2 56.5 -128.6 41.8C-131.9 27 -133.6 13.5 -135.2 0L0 0Z" fill="#f25e34"></path><path d="M0 67.6C-7.6 66.5 -15.2 65.3 -19.5 60.1C-23.8 54.8 -24.8 45.4 -30.6 42.1C-36.4 38.7 -47 41.5 -53.5 38.9C-60.1 36.3 -62.6 28.3 -64.3 20.9C-66 13.5 -66.8 6.8 -67.6 0L0 0Z" fill="#f7770f"></path></g><g transform="translate(0, 600)"><path d="M0 -405.6C47.3 -409.6 94.7 -413.6 125.3 -385.8C156 -358 170 -298.4 191.6 -263.7C213.2 -229.1 242.4 -219.3 276.7 -201C311 -182.8 350.5 -156 372.8 -121.1C395.2 -86.2 400.4 -43.1 405.6 0L0 0Z" fill="#242b4d"></path><path d="M0 -338C39.4 -341.3 78.9 -344.6 104.5 -321.5C130 -298.3 141.7 -248.7 159.7 -219.8C177.7 -190.9 202 -182.7 230.6 -167.5C259.2 -152.3 292.1 -130 310.7 -100.9C329.3 -71.8 333.7 -35.9 338 0L0 0Z" fill="#5b3469"></path><path d="M0 -270.4C31.6 -273.1 63.1 -275.7 83.6 -257.2C104 -238.7 113.4 -198.9 127.7 -175.8C142.1 -152.7 161.6 -146.2 184.5 -134C207.3 -121.8 233.6 -104 248.5 -80.8C263.4 -57.5 266.9 -28.7 270.4 0L0 0Z" fill="#9b346f"></path><path d="M0 -202.8C23.7 -204.8 47.3 -206.8 62.7 -192.9C78 -179 85 -149.2 95.8 -131.9C106.6 -114.5 121.2 -109.6 138.3 -100.5C155.5 -91.4 175.2 -78 186.4 -60.6C197.6 -43.1 200.2 -21.6 202.8 0L0 0Z" fill="#d23b5c"></path><path d="M0 -135.2C15.8 -136.5 31.6 -137.9 41.8 -128.6C52 -119.3 56.7 -99.5 63.9 -87.9C71.1 -76.4 80.8 -73.1 92.2 -67C103.7 -60.9 116.8 -52 124.3 -40.4C131.7 -28.7 133.5 -14.4 135.2 0L0 0Z" fill="#f25e34"></path><path d="M0 -67.6C7.9 -68.3 15.8 -68.9 20.9 -64.3C26 -59.7 28.3 -49.7 31.9 -44C35.5 -38.2 40.4 -36.5 46.1 -33.5C51.8 -30.5 58.4 -26 62.1 -20.2C65.9 -14.4 66.7 -7.2 67.6 0L0 0Z" fill="#f7770f"></path></g></svg>